<svg width="175" height="42" viewBox="0 0 175 42" fill="none" xmlns="http://www.w3.org/2000/svg">
<path d="M49.8445 28.1274V35.4996H27.6483V17.3682L11 7.00952H30.6088V28.1274H49.8445Z" fill="#FF872D"/>
<path fill-rule="evenodd" clip-rule="evenodd" d="M49.8444 17.3682L66.4927 7.00952H49.8444V17.3682Z" fill="white"/>
<path d="M77.3803 35.5112V7H82.8628L95.0552 27.1208H92.1503L104.138 7H109.58L109.662 35.5112H103.443L103.402 16.4902H104.547L94.9734 32.4972H91.9867L82.2082 16.4902H83.5992V35.5112H77.3803Z" fill="white"/>
<path d="M121.734 36C119.798 36 118.011 35.647 116.375 34.941C114.765 34.2079 113.443 33.176 112.406 31.8455L116.088 27.4466C116.879 28.4785 117.711 29.2659 118.584 29.809C119.457 30.3249 120.398 30.5829 121.407 30.5829C124.107 30.5829 125.458 29.008 125.458 25.8581V12.2949H115.393V7H132.045V25.4916C132.045 29.0215 131.172 31.6554 129.426 33.3933C127.681 35.1311 125.117 36 121.734 36Z" fill="white"/>
<path d="M151.316 36C147.252 36 144.074 34.8731 141.783 32.6194C139.492 30.3656 138.346 27.1479 138.346 22.9663V7H144.974V22.7219C144.974 25.4373 145.534 27.3923 146.652 28.5871C147.77 29.7818 149.338 30.3792 151.357 30.3792C153.375 30.3792 154.944 29.7818 156.062 28.5871C157.18 27.3923 157.74 25.4373 157.74 22.7219V7H164.286V22.9663C164.286 27.1479 163.14 30.3656 160.849 32.6194C158.558 34.8731 155.38 36 151.316 36Z" fill="white"/>
</svg>
